<?xml version="1.0" encoding="UTF-8"?><svg xmlns="http://www.w3.org/2000/svg" viewBox="0 0 96 96"><path d="M51.7 18L49.3 23.8 46.4 23.8 44 18.1 29.4 24.2 31.8 30 29.8 32 24.1 29.6 18 44.3 23.8 46.7 23.8 49.6 18.1 52 24.2 66.6 29.9 64.2 32 66.3 29.6 72 44.3 78 46.7 72.2 49.6 72.2 52 77.9 66.6 71.8 64.2 66.1 66.2 64 72 66.4 78 51.7 72.2 49.4 72.2 46.5 77.9 44.1 71.9 29.4 66.1 31.8 64 29.8 66.4 24.1 51.7 18zM47.9 35.2A12.8 12.8 0 0 1 60.7 48 12.8 12.8 0 0 1 47.9 60.8 12.8 12.8 0 0 1 35.1 48 12.8 12.8 0 0 1 47.9 35.2z" fill="#fff"/></svg>