<?xml version="1.0" encoding="utf-8"?><svg xmlns="http://www.w3.org/2000/svg" viewBox="0 0 96 96"><path fill="#556DB3" d="M64.1 72.9c-0.5 0-1-0.1-1.5-0.4L48 64.8l-14.6 7.7c-1.3 0.7-2.8 0.4-3.6-0.6 -0.6-0.7-0.8-1.6-0.6-2.5l2.8-16.3L20.1 41.6c-0.9-0.8-1.2-2-0.8-3 0.3-1.1 1.3-1.8 2.5-2l16.3-2.4 7.3-14.8c0.5-1.1 1.5-1.7 2.6-1.7s2.1 0.6 2.6 1.7l7.3 14.8 16.3 2.4c1.2 0.2 2.1 0.9 2.5 2s0 2.2-0.8 3.1L64.1 53.1l2.8 16.3c0.2 0.9-0.1 1.8-0.6 2.5C65.7 72.5 64.9 72.9 64.1 72.9zM26.5 40.9l9.1 8.9c1 0.9 1.4 2.4 1.2 3.7l-2.2 12.6 11.3-5.9c0.7-0.4 1.5-0.5 2-0.5s1.2 0.1 2 0.5l11.3 5.9L59.1 53.6c-0.2-1.3 0.3-2.8 1.2-3.7l9.1-8.9-12.6-1.8c-1.3-0.2-2.6-1.1-3.2-2.3L48 25.3l-5.6 11.4c-0.6 1.2-1.9 2.1-3.2 2.3L26.5 40.9z"/></svg>