<?xml version="1.0" encoding="utf-8"?><svg xmlns="http://www.w3.org/2000/svg" viewBox="0 0 288 288"><circle cx="144" cy="144" r="120" fill="none" stroke="#b23d25" stroke-width="19"/><path d="m122.2 134.3 12.2-12.5 33.1 32.4-12.8 12.3zm31.9 53.4-53.2 17.7-18-17 18-53.6zm-18.8-86.7 52.1-17.7 17.4 17.4-17.6 52.4c-0.5 0-52.2-51.9-51.9-52.1zm-62.1 131.3 15.7-15.1 8.9 7.1 68.9-23.2 7 6 11.7-11.7-13.6-13.9 10.1-10.2 13.8 13.8 11.7-12-6.2-6.9 22.8-69.4-7.3-7.9 15.5-15.9-17.3-17.3-15.9 15.9-8-7.5-69.1 22.9-7-6.2-11.7 11.7 14.2 14.3-10.1 10.2-14.1-14.1-12 12.1 5.9 6.5-23 70.8 7.2 7.6-15 15.5z" fill="#b23d25"/></svg>