<?xml version="1.0" encoding="utf-8"?><svg xmlns="http://www.w3.org/2000/svg" viewBox="0 0 2500 2500"><circle cx="1250" cy="1250" r="1130" fill="none" stroke="#11b186" stroke-width="120"/><path fill="#11b186" d="m1628,1084 0,-308C1629,600 1445,440 1330,427 1128,387 933,508 884,703 876,741 877,766 874,801l142,0c13,0 17,-6 19,-20 5,-64 22,-107 59,-146 132,-122 346,-41 383,115 28,125 20,184 20,334l-686,5c-102,1-162,84-162,163l64,684c10,83 44,145 117,144l811,0c89,0 119,-57 136,-144l69,-684c13,-88-23,-157-108,-163zm-9,835-741,0-59,-667 859,0z"/></svg>