<?xml version="1.0" encoding="utf-8"?>
<svg xmlns="http://www.w3.org/2000/svg" viewBox="0 0 18 18"><rect width="18" height="18" fill="#343434"/><path fill="#fff" d="M6.9 10.1c0 1.3-0.4 1.6-2.9 1.6H3.7c-2.8 0-3.1-0.2-3.1-1.6V10h1.2v0.1c0 0.7 0.2 0.8 1.8 0.8h0.2c1.7 0 1.9-0.1 1.9-0.7v-0.1c0-0.6-0.1-0.7-2-0.7C1 9.4 0.7 9.1 0.7 7.9V7.8c0-1.3 0.4-1.5 2.7-1.5h0.3c2.7 0 3 0.3 3 1.6V8H5.6V7.9c0-0.6-0.2-0.8-1.7-0.8H3.7c-1.6 0-1.8 0.1-1.8 0.7v0.1c0 0.5 0.1 0.6 2 0.6C6.6 8.5 6.9 8.7 6.9 10.1L6.9 10.1 6.9 10.1zM15.4 11.7H14l-1.6-4h0l-1.6 4H9.4L7.4 6.3h1.2l1.5 4.3h0l1.7-4.3H13l1.7 4.3h0l1.5-4.3h1.2L15.4 11.7z"/></svg>