<?xml version="1.0" encoding="utf-8"?><svg xmlns="http://www.w3.org/2000/svg" viewBox="0 0 18 18"><rect width="18" height="18" fill="#fff"/><path d="m9.9,4.3 2.2,0c0.1,0.1 0.1,0.4 0,0.5-0.7,0.1-1.1,0.7-1.4,1.3L9.6,8.1 11.4,12 11.5,12 14.2,6C14.6,5.3 14.6,4.9 13.6,4.8 13.5,4.7 13.5,4.4 13.6,4.3l2.7,0c0.1,0.1 0.1,0.4 0,0.5-0.8,0.1-1.1,0.6-1.4,1.3l-3.4,7.3c-0.1,0.2-0.2,0.3-0.3,0.3-0.1,0 -0.3,-0.1-0.3,-0.3l-1.9,-4.2-2.1,4.2c-0.1,0.2-0.2,0.3-0.3,0.3-0.1,0-0.2,-0.1-0.3,-0.3L3,6.1C2.6,5 2.4,4.8 1.7,4.8 1.6,4.7 1.6,4.4 1.7,4.3l3.1,0C4.9,4.4 4.9,4.7 4.8,4.8 3.9,4.9 3.8,5.1 4.2,6L6.8,12 6.9,12 8.5,8.7 7.3,6.1C6.8,5.1 6.7,4.9 6.1,4.8 6,4.7 6,4.4 6.1,4.3L8.6,4.3c0.1,0.1 0.1,0.1 0,0.5C8,4.9 8.1,5.1 8.5,5.9L9.2,7.4 10,6C10.5,5.2 10.5,4.8 9.9,4.8 9.8,4.7 9.8,4.4 9.9,4.3z" fill="#343433"/></svg>