<?xml version="1.0" encoding="UTF-8"?><svg xmlns="http://www.w3.org/2000/svg" viewBox="0 0 1280 1280"><path fill="#111" d="m190 795c-117 51-190 123-190 202 0 157 286 284 640 284 354 0 640-127 640-284 0-79-73-151-190-202l0 150c0 110-202 199-450 199-249 0-450-89-450-199l0-150zM190 453c-117 51-190 123-190 202 0 157 286 284 640 284 354 0 640-127 640-284 0-79-73-151-190-202l0 150c0 110-202 199-450 199-249 0-450-89-450-199l0-150zM639 0c-334 0-608 119-637 271l356 67c29-9 62-13 96-13l167-100c-2-25 13-51 47-72 48-31 123-48 199-48 52-1 105 7 150 22 112 38 137 111 57 163-51 33-133 50-214 48l-220 79c-2 16-13 31-34 45-59 38-174 47-256 19-36-12-60-30-70-48l-253-48c79 123 323 213 613 213 354 0 640-134 640-299 0-165-287-299-640-299zm228 142c-52 1-102 12-134 33-55 36-38 85 38 110 76 26 181 18 236-18 55-36 38-85-38-110-31-10-67-15-102-15zm3 17c74 0 133 28 133 62 0 34-59 62-133 62-74 0-133-28-133-62 0-34 59-62 133-62zm-417 185c-16 1-31 2-46 4l91 17a108 50 0 10 10-81 93l-89-17c1 9 24 17 43 24 64 22 154 15 200-15 46-30 32-72-32-93-26-9-57-13-86-13z"/></svg>