<?xml version="1.0" encoding="UTF-8"?><svg xmlns="http://www.w3.org/2000/svg" viewBox="0 0 128 128"><g transform="translate(-403.4,-275.2)" fill="#111"><path d="m422.4 354.7c-11.7 5.1-19 12.3-19 20.2 0 15.7 28.6 28.4 64 28.4 35.4 0 64-12.7 64-28.4 0-7.9-7.3-15.1-19-20.2l0 15c0 11-20.2 19.9-45 19.9-24.9 0-45-8.9-45-19.9l0-15zM422.4 320.5c-11.7 5.1-19 12.3-19 20.2 0 15.7 28.6 28.4 64 28.4 35.4 0 64-12.7 64-28.4 0-7.9-7.3-15.1-19-20.2l0 15c0 11-20.2 19.9-45 19.9-24.9 0-45-8.9-45-19.9l0-15zM467.3 275.2c-33.4 0-60.8 11.9-63.7 27.1l35.6 6.7c2.9-0.9 6.2-1.3 9.6-1.3l16.7-10c-0.2-2.5 1.3-5.1 4.7-7.2 4.8-3.1 12.3-4.8 19.9-4.8 5.2-0.1 10.5 0.7 15 2.2 11.2 3.8 13.7 11.1 5.7 16.3-5.1 3.3-13.3 5-21.4 4.8l-22 7.9c-0.2 1.6-1.3 3.1-3.4 4.5-5.9 3.8-17.4 4.7-25.6 1.9-3.6-1.2-6-3-7-4.8l-25.3-4.8c7.9 12.3 32.3 21.3 61.3 21.3 35.4 0 64-13.4 64-29.9 0-16.5-28.7-29.9-64-29.9zm22.8 14.2c-5.2 0.1-10.2 1.2-13.4 3.3-5.5 3.6-3.8 8.5 3.8 11 7.6 2.6 18.1 1.8 23.6-1.8 5.5-3.6 3.8-8.5-3.8-11-3.1-1-6.7-1.5-10.2-1.5zm0.3 1.7c7.4 0 13.3 2.8 13.3 6.2 0 3.4-5.9 6.2-13.3 6.2-7.4 0-13.3-2.8-13.3-6.2 0-3.4 5.9-6.2 13.3-6.2zm-41.7 18.5c-1.6 0.1-3.1 0.2-4.6 0.4l9.1 1.7a10.8 5 0 1 1-8.1 9.3l-8.9-1.7c1 0.9 2.4 1.7 4.3 2.4 6.4 2.2 15.4 1.5 20-1.5 4.6-3 3.2-7.2-3.2-9.3-2.6-0.9-5.7-1.3-8.6-1.3z"/></g></svg>