<?xml version="1.0" encoding="utf-8"?><svg xmlns="http://www.w3.org/2000/svg" viewBox="0 0 180 180"><path d="m99,43 22,0c1,1 1,4 0,5-7,1-11,7-14,13L96,81 114,120 115,120 142,60C146,53 146,49 136,48 135,47 135,44 136,43l27,0c1,1 1,4 0,5-8,1-11,6-14,13l-34,73c-1,2-2,3-3,3-1,0-3,-1-3,-3l-19,-42-21,42c-1,2-2,3-3,3-1,0-2,-1-3,-3L30,61C26,50 24,48 17,48 16,47 16,44 17,43l31,0C49,44 49,47 48,48 39,49 38,51 42,60L68,120 69,120 85,87 73,61C68,51 67,49 61,48 60,47 60,44 61,43L86,43c1,1 1,1 0,5C80,49 81,51 85,59L92,74 100,60C105,52 105,48 99,48 98,47 98,44 99,43z" fill="#343433"/></svg>