<?xml version="1.0" encoding="utf-8"?><svg xmlns="http://www.w3.org/2000/svg" viewBox="0 0 250 250"><defs><clipPath id="l"><rect x="125" width="125" height="250"/></clipPath></defs><circle cx="125" cy="125" r="121" fill="#e3e3e3"/><circle cx="125" cy="125" r="121" clip-path="url(#l)" fill="#d3d3d3" transform="rotate(-45 125 125)"/><path d="m205 155-22 0-29-47-18 29-12-12 19-30L107 39 128 39 155 83 182 39l20 0-36 56zM127 127c-4 7-12 9-18 11l0 1C127 143 135 152 135 169 135 210 92 205 45 205L45 198 45 80 45 80 80 80 99 99C88 96 78 97 66 97l0 35 0 0c23 0 49 0 44-22m-44 39 0 40c30 0 48 1 48-20 0-24-27-19-48-19z" fill="#999999"/></svg>