<?xml version="1.0" encoding="utf-8"?><svg xmlns="http://www.w3.org/2000/svg" viewBox="0 0 288 288"><circle cx="144" cy="144" r="135" fill="none" stroke-width="10" stroke="#1f3661"/><path d="m173.7 121.4 17.2-48.5 25.3 0-32.2 89.7c2.7 17.7 20 42.5 30 29.8 4.1-6.2 4.6-13.3 5.6-20l7 0c-0.4 15-0.6 33.2-11.5 42.8-25.2 13.1-31.9-16.6-39.2-33.7-12.9 21.1-26 35.5-49.7 37.2-39.7 2.6-58.8-20.9-63.6-54-10.6-45.7 8.3-87.7 50.6-94.8 39.8-3.3 53.4 19.3 60.4 51.4zm-82.5 23.4c0.9 22 2.8 57.3 29.1 61.7 24.6-3.1 45.7-38.3 44.5-61.2-4.3-24.4-9.7-59.1-37-63.5-32.3-1.2-36.7 39.3-36.6 63z" fill="#1f3661"/></svg>