<?xml version="1.0" encoding="utf-8"?><svg xmlns="http://www.w3.org/2000/svg" viewBox="0 0 288 288"><circle cx="144" cy="144" r="135" fill="none" stroke="#1f3661" stroke-width="10"/><path d="m112.8 100.8c0.2-20.4 5.4-46.7 26.5-48.5 36.4 1.3 33.3 59.9 14.3 70.6-9.8 0.5-22.2-10.9-30.1-2-5.6 6.3-5.2 12.4 0.8 19 6.6 7.3 17.6-0.4 26.6-3.3 35.4 13.5 36.5 62.5 25.2 88.6-12.4 25.1-40.6 14.6-50.4-0.6-4.8-1.5-8.4-0.7-11.6 2-2.1-3.8-1.1-87.8-1.3-125.8zm0.8 172.5 0-42.7c7 15.9 19.6 21.9 35.4 23.5 52.1 5.2 77.7-45 66.1-84.1-9.8-24.6-24.9-30.9-44.4-40.8C216.4 108.7 211.9 63.1 181.8 47 126.3 22.9 78.1 59.6 80.1 114l0 146.6z" fill="#1f3661"/></svg>