<?xml version="1.0" encoding="utf-8"?><svg xmlns="http://www.w3.org/2000/svg" viewBox="0 0 288 288"><circle cx="144" cy="144" r="135" fill="none" stroke="#1f3661" stroke-width="10"/><path fill="#1f3661" d="M242.773,106.425c-15.311,15.491-29.774,30.121-43.821,44.328c-14.575-3.878-26.97-7.173-40.495-10.768c-3.352-12.609-6.749-25.375-10.087-37.915c15.112-14.863,29.549-29.062,45.805-45.051c-24.404-8.823-43.334-1.203-59.838,11.329c-24.61,18.686-31.182,44.548-24.333,73.279l-77.211,77.681l9.941,9.483l73.238-74.172l3.586,3.54L46.38,232.27l21.521,20.527l72.024-72.941l3.585,3.54l-71.963,72.881l10.024,9.561l77.069-76.894c26.646,6.428,52.832-0.29,71.775-25.466C242.775,147.052,250.111,128.39,242.773,106.425z"/></svg>