<?xml version="1.0" encoding="utf-8"?><svg version="1.1" xmlns="http://www.w3.org/2000/svg" width="512" height="512" viewBox="-112 -112 512 512"><g fill="#1f3561"><path d="M316.7 209c-0.1 5.4-0.5 10.7-1.2 16.1 -1.2 8.6-2.8 17.1-7.1 24.8 -2.7 4.9-5.6 9.5-11.1 11.7 -2.3 0.9-4.7 1.5-7.3 1.7 -4.2 0.3-8.2-0.6-12.2-1.8 -6.9-2.1-13.9-4-20-8.1 -2.4-1.6-4.8-3.1-7-4.8 -5.3-4.1-10.4-8.4-15.3-13 -2.7-2.5-5.5-5-8.3-7.4 -6.3-5.4-13-10.3-20.6-13.8 -5.2-2.4-10.6-3.9-16.1-5.3 -8.8-2.2-17.8-3.6-26.9-3.7 -10.9-0.1-21.8-0.1-32.8 0.1 -8.1 0.2-16.1 0.6-24 2.1 -7.3 1.4-14.6 3-21.7 5.5 -8 2.8-14.9 7.5-21.7 12.5 -1.9 1.4-3.7 3.1-5.5 4.7 -2.7 2.5-5.5 4.9-8.2 7.3 -2.1 1.9-4.3 3.7-6.4 5.6 -1.6 1.4-3.5 2.7-5.2 4.1 -5.4 4.3-11 8-17.4 10.5 -6 2.4-12.2 4.8-18.6 5.8 -2.3 0-4.5 0-6.8 0 -3.1-1-6.1-1.3-8.8-3.1 -1.4-1-2.6-2-3.7-3.2 -3.7-3.9-6.8-8.2-8.2-13.4 -2.2-8.4-3.2-16.8-3.3-25.5 0-0.4 0.1-0.9 0.1-1.2 0-4.8 0-9.6 0-14.4 0-2.8-0.1-5.6 0.1-8.5 0.4-7.6 1.1-15.2 1.9-22.8 0.7-6.4 1.6-12.7 2.6-19.1 1.3-8.1 2.9-16.2 4.7-24.2 0.7-3.3 1.7-6.5 2.5-9.8 2.4-9.5 5.1-18.8 8.3-28.1C-4.3 78.3 0.4 66.6 5.2 54.9c0.7-1.8 1.7-3.4 2.7-5.1 1.2-1.8 3.3-3 3.2-5.5 0-1.3 0.5-2.6 0.7-3.9 0.1-0.7 0.5-1.3 1.1-1.7 1.6-1.1 3.1-2.3 4.8-3.3 3.3-1.8 6.6-3.6 10.1-5.1 12.8-5.5 26.1-7.2 39.9-5.1 0.4 0.1 0.3 0.3 0.5 0.6 0.9 1.3 1.3 3.1 2.8 3.8 1.1 0.5 2.3 1.6 3.8 0.6 0.2-0.2 0.8 0 1.1 0.1 4.5 2.2 9.1 4.3 13.5 6.8 4.8 2.7 9.7 5 15.2 6 10.8 2 21.7 2.4 32.7 2.2 7-0.1 14-0.1 21.1-0.2 6.7-0.1 13.3-0.3 20-1.2 5.1-0.7 10.1-1.6 14.7-4.2 6-3.4 12.2-6.6 18.6-9.3 0.9-0.4 1.7-0.7 2.3 0.4 0.1 0.2 0.3 0.5 0.6 0.2 1-1.4 2.7-2.1 3.6-3.7 0.8-1.5 2.3-2 4-2.4 2.2-0.4 4.4-0.3 6.6-0.3 3.3 0 6.6 0 9.9 0 0.3 0 0.7 0.2 1.1 0.2 4.7 0.5 9.2 1.4 13.7 3 0.7 0.3 4.3 1.5 4.7 1.7 5.7 2.5 11.2 5.3 16.4 8.7 1.2 0.8 1.7 1.7 2 3.1 0.4 2 0.1 4.1 1.4 5.9 0.9 1.3 2.1 2.5 2.7 4.1 1.8 4 3.8 7.9 5.4 12 2.3 5.7 4.5 11.4 6.6 17.1 1.4 4 2.9 7.9 4.2 12 2 6.4 4 12.7 5.7 19.2 2.2 8.4 4.4 16.9 6.2 25.4 1.9 8.6 3.3 17.3 4.4 26 1.6 12.9 3.3 25.9 3.6 38.9C316.8 203.7 316.7 208.6 316.7 209z"/><path d="M144 380.6C10.4 380.6-98.3 274.5-98.3 144S10.4-92.6 144-92.6C277.6-92.6 386.3 13.5 386.3 144S277.6 380.6 144 380.6zM144-75.6C19.8-75.6-81.2 22.9-81.2 144S19.8 363.6 144 363.6c124.2 0 225.2-98.5 225.2-219.6S268.2-75.6 144-75.6z"/></g></svg>