<?xml version="1.0" encoding="UTF-8"?>
<svg xmlns="http://www.w3.org/2000/svg" viewBox="0 0 288 288"><path d="m241 180.6c0 11.4-2.2 30.6-15 30.6-19.8 0-25.6-17.5-46.9-27.6-16.8-6-50.5-6.9-68.2-0.8-18.7 8.3-28.9 28.4-46.6 28.4-14.6 0-17.2-14.7-17.2-26.1 0-41.2 7.2-62.4 19-91.2 0.5-2.3 3.3-4.2 3.3-6 0.1-1.2 0.3-2.3 1-3.1 9.8-7.2 21.7-10 30.8-7.6 2 1.8 2.5 3.6 4.6 2.9 21.3 11.2 51.5 10.6 76.9-0.2 2.2 1.2 3-2.3 5.2-2.8 9.7-2.6 20.9 1.9 29.4 7.5 0.7 0.4 1 1 1.1 1.7-0.2 2.5 1.5 3.7 2.3 5.6 12.2 27.8 20.2 57.6 20.2 88.6z" fill="#1f3561"/><circle stroke="#1f3661" stroke-width="10" fill="none" cx="144" cy="144" r="135"/></svg>