<?xml version="1.0" encoding="UTF-8"?><svg xmlns="http://www.w3.org/2000/svg" viewBox="0 0 288 288"><g fill="#1f3561"><path d="m140.2 95.6c22.2 0 59.7 6.7 68.8 9.6 6.8 2.2 11.1 7 12.3 14 1.9 10.7 5.3 41.8 5.8 47.4 0.6 6.2-1.5 14-5.2 16.7-6.6 6.6-11.9 8.4-23.7 8.4-10.9 0-40.1-4.7-51-4.7-10.3 0-34.3 5.6-49.4 5.6-15.1 0-21-2.9-28.2-7.9-4.8-3.4-9.5-12.9-8.8-19.1 1-9.2 4.4-38.9 5.4-44.6 1.5-8.9 6.7-14.1 15.4-16.6 19.2-5.8 38.8-8.8 58.6-8.8zM60.6 115.5l-5.2 39.6c-0.2 1.9-1 2.1-2.5 1.6-2.2-0.7-4-2.9-4-5.5l0-30c0-3.3 2.4-5.6 5.7-5.7z"/><path d="m226.9 115.5 5.2 39.6c0.2 1.9 1 2.1 2.5 1.6 2.2-0.7 4-2.9 4-5.5l0-30c0-3.3-2.4-5.6-5.7-5.7z"/></g><circle stroke="#1f3661" stroke-width="10" fill="none" cx="144" cy="144" r="135"/></svg>