<?xml version="1.0" encoding="utf-8"?><svg xmlns="http://www.w3.org/2000/svg" viewBox="0 0 288 288"><g fill="#1f3561"><path d="m224.7 159.5 0 48.2-11.8 0 0-36-7.4 0c-2.7 0-3.7 1.6-3.7 4.4l0 31.6-11.4 0 0-36-8.7 0c-1.7 0-2.8 1.3-2.8 3.4 0 0.3 0 0.6 0 0.9l0 31.7-11.4 0 0-38c0-6.6 3.5-10.2 10.2-10.2zM158.3 168.9c0-5.1-4.1-9.3-9.1-9.3l-28.6 0c-5.7 0-9.4 4.1-9.4 9.8l0 28.4c0 5.8 4.7 9.9 9.7 9.9l27.8 0c6.1 0 9.6-4.1 9.6-9.6zm-11.4 23.2c0 2.2-1.7 4-3.9 4l-16.4 0c-2.7 0-4.1-1.5-4.1-4.2l0-15.9c0.1-3.4 1.2-4.4 4.5-4.4l15.5 0c2.9 0.1 4.2 1 4.3 3.8zM63.3 169c0-5.6 3.5-9.5 9.2-9.5l29.3 0 0 12.1-23 0c-3.6 0-4.2 0.6-4.2 4l0 16.3c0 3 1.2 4.2 4.3 4.2l22.9 0 0 11.6-29.4 0c-5.9 0-9.2-4-9.2-9.4z"/><path d="m224.7 138.3c0.1 7.6-4.3 11.8-11.4 11.8l-36.3 0 0-12.2 31.2 0c3.8 0 4.6-0.7 4.6-4.7l0-36.9c-0.1-3.1-1.2-4.2-4.2-4.2l-15.8 0c-2.7 0-4.3 1.6-4.3 4.3l0 16.2c0 3 1.2 4.3 4.2 4.4l13.4 0 0 11.7-20.5 0c-5.2 0-8.2-3.7-8.2-8.6l0-31.1c0-5 3-8.5 8.6-8.5l27.6 0c7.2 0 11 4.2 11 11zM167.7 89.9c0-5-4-9.3-9-9.3l-28.4 0c-5.6 0-9.3 4.2-9.3 9.8l0 28.2c0 5.6 4.9 9.9 9.7 9.9l27.6 0c6.1 0 9.5-4.3 9.5-9.5zm-11.3 23c0 2.3-1.5 4-3.9 4l-16.2 0c-2.7 0-4.1-1.5-4.1-4.2l0-15.8c0-3.3 1.2-4.4 4.5-4.4l15.4 0c2.9 0 4.3 1 4.3 3.8zM111.7 138.2c0 7.7-4.2 11.8-11.4 11.8l-36.3 0 0-12.2 31.2 0c3.7 0 4.6-0.8 4.6-4.7l0-36.9c0-3.1-1.1-4.2-4.2-4.2l-15.8 0c-2.8 0-4.3 1.5-4.3 4.3l0 16.2c0 3 1.2 4.4 4.2 4.4l13.4 0 0 11.7-20.5 0c-5.2 0-8.3-4-8.2-8.6l0-31.1c0-5.1 3.4-8.5 8.6-8.5l27.6 0c7.2 0 11 3.9 11 11 0.1 6.4 0 39.3 0.1 46.9z"/></g><circle r="135" cy="144" cx="144" fill="none" stroke-width="10" stroke="#1f3661"/></svg>