<?xml version="1.0" encoding="utf-8"?><svg xmlns="http://www.w3.org/2000/svg" viewBox="-5 -5 35 35"><path fill="#fff" d="M19.7 7.8c-1.1 0-1.9 0.9-1.9 1.9 0 1.1 0.9 1.9 1.9 1.9 1.1 0 1.9-0.9 1.9-1.9C21.7 8.7 20.8 7.8 19.7 7.8zM22.2 6.8c-1.2-1-2.9-1.2-4.3-0.4 -1.1 0.7-1.8 1.6-1.9 3 0 0.1 0 0.3-0.1 0.4 -0.8 1.2-1.6 2.3-2.5 3.4 0 0 0 0-0.1 0 -0.5 0-1 0.2-1.4 0.4 0 0-0.1 0-0.1 0 -0.6-0.2-1.1-0.5-1.7-0.7 -1.7-0.7-3.5-1.5-5.2-2.2C3.8 10.3 2.8 9.9 1.8 9.4c-0.2 1-0.4 2-0.4 3.1 0 0.1 0 0.2 0 0.3 0.2 0.1 0.5 0.2 0.7 0.3 1.6 0.7 3.2 1.4 4.8 2 1.1 0.5 2.3 1 3.4 1.4 0.1 0 0.1 0.1 0.1 0.2 0.3 1.2 1 2 2.2 2.2 1.1 0.3 2.1-0.1 2.9-1 0.4-0.5 0.6-1.1 0.7-1.7 0-0.1 0-0.2 0.1-0.2 1-0.8 2.1-1.6 3.2-2.4 0.1-0.1 0.2-0.1 0.4-0.2 0.2-0.1 0.4-0.1 0.6-0.1 1.8-0.4 3-1.9 3-3.7C23.6 8.6 23.1 7.5 22.2 6.8zM15.6 16.6c-0.2 0.9-0.7 1.5-1.6 1.8 -0.8 0.2-1.6 0-2.2-0.5 -0.1-0.1-0.1-0.2-0.2-0.2 -0.1-0.1-0.1-0.3 0-0.4 0.1-0.1 0.2-0.1 0.4 0 0.1 0.1 0.3 0.2 0.4 0.3 0.4 0.3 0.8 0.4 1.3 0.3 1.2-0.2 1.5-1.4 1.2-2.2 -0.3-0.7-0.9-1-1.6-1 -0.1 0-0.2 0-0.4 0 -0.2 0-0.2-0.1-0.3-0.3 0-0.1 0-0.2 0.1-0.3 0.1-0.1 0.3-0.1 0.4-0.1C14.7 13.8 15.9 15.2 15.6 16.6zM19.7 12.4c-1.4 0-2.6-1.2-2.6-2.7 0-1.4 1.2-2.6 2.7-2.6 1.4 0 2.6 1.2 2.6 2.6C22.4 11.2 21.2 12.4 19.7 12.4z"/></svg>