<?xml version="1.0" encoding="UTF-8"?><svg xmlns:svg="http://www.w3.org/2000/svg" xmlns="http://www.w3.org/2000/svg" viewBox="0 0 250 250"><rect height="250" width="250" fill="#CB2A2C"/><path d="m70 220c5-20 9-40 13-59 4-21 8-43 9-64C92 87 90 72.3 79 74 61 79.5 52 95.7 49 110l-12 0c0-10 2-16 5-23 6-14 13-26 25-36 15-12 36.4-14.4 45 2 8.3 18.8 8 39.9 8 57l22 0c5-20 11-46 19-70l27 0c-7 26-13 53-18 80-3 17-6 34-4 52 1 14 8 17 20 11 9-5 14-13 18-22 1-4 2-11 4-11l12 0c0 0-1 7-2 11-6 21-16 39-34 52-15.4 10.3-33.4 6.5-41-7-9.9-21-7.2-43.5-5-66l-22 0c-5 3-11 50-20 80z" fill="#fff"/></svg>