<?xml version="1.0" encoding="utf-8"?>
<!-- Generator: Adobe Illustrator 19.0.0, SVG Export Plug-In . SVG Version: 6.00 Build 0)  -->
<svg version="1.1"
	 id="svg3671" xmlns:dc="http://purl.org/dc/elements/1.1/" xmlns:cc="http://creativecommons.org/ns#" xmlns:rdf="http://www.w3.org/1999/02/22-rdf-syntax-ns#" xmlns:svg="http://www.w3.org/2000/svg"
	 xmlns="http://www.w3.org/2000/svg" xmlns:xlink="http://www.w3.org/1999/xlink" x="0px" y="0px" viewBox="-140 222 350 350"
	 style="enable-background:new -140 222 350 350;" xml:space="preserve">
<style type="text/css">
	.st0{fill:#FFA500;stroke:#000000;stroke-width:7.5827;}
	.st1{fill:#FFFFFF;}
</style>
<g id="layer1" transform="translate(-328.50774,-40.933616)">
	<g id="g2384" transform="matrix(1.0844784,0,0,1.1092381,-28.277611,-37.042263)">
		<path id="rect2245" class="st0" d="M264.9,287.7h192.8c31.2,0,56.5,23.2,56.5,51.9v177.2c0,28.7-25.3,51.9-56.5,51.9H264.9
			c-31.2,0-56.5-23.2-56.5-51.9V339.6C208.3,310.9,233.6,287.7,264.9,287.7z"/>
		<path id="path18" d="M316.3,335.3l58.1,0.1c12.1-0.1,21.2,1.8,27.2,5.7c7.3,4.8,11,12.9,11,24.5c0,19.1-9.1,29.9-27.2,32.5v0.3
			c8,1.9,12,8.4,12.1,19.4c0,5.6-0.2,12.8-0.6,21.6c0,5.9,1.3,11,3.8,15.3h-31.8c-1.5-1.6-2.2-4.8-2.2-9.6
			c0.6-8.1,0.9-14.7,0.9-19.9c0-10.5-5.1-15.7-15.4-15.7h-20.6l-9,42.4h-31L316.3,335.3L316.3,335.3z M365.4,359.6h-22.8l-5.9,28.1
			h24.7c13.8,0,20.7-5.3,20.8-16C382.2,363.6,376.6,359.6,365.4,359.6L365.4,359.6z"/>
		<path id="path20" d="M404.9,454.6l23-38.9l6.2,39.2h39.2l-35.4,24.8l5.7,38.9l-30.6-23.5l-41.2,24.4l19.3-41.4l-22.4-23.6
			L404.9,454.6L404.9,454.6z"/>
		<path id="path3659" class="st1" d="M431.7,476.9l23.5-16.4h-26l-4.5-28.4l-16.5,28.1h-26.2l16,16.8l-13.2,28.1l28.6-16.9
			l22.6,17.3L431.7,476.9L431.7,476.9z"/>
	</g>
</g>
</svg>
