<?xml version="1.0" encoding="utf-8"?>
<!-- Generator: Adobe Illustrator 19.0.0, SVG Export Plug-In . SVG Version: 6.00 Build 0)  -->
<svg version="1.1" id="Layer_2" xmlns="http://www.w3.org/2000/svg" xmlns:xlink="http://www.w3.org/1999/xlink" x="0px" y="0px"
	 viewBox="-293 384 25 25" style="enable-background:new -293 384 25 25;" xml:space="preserve">
<style type="text/css">
	.st0{fill:#333332;}
	.st1{fill:#FFFFFF;}
</style>
<g>
	<path class="st0" d="M-290.9,403.1c0,2.5,4.6,3.4,6.6,4.2c2,0.9,2.1,0.9,2.1,0.9c2.1,0.8,3.5,0,3.5,0s4.3-1.8,6.2-2.6
		c2-0.8,2.6-0.9,2.6-2.6c0-1.6,0-15.5,0-17.2c0-1.4-0.4-1.4-3.2-1.4s-13.7,0-15.1,0c-1.5,0-2.8-0.2-2.8,1.6
		C-290.9,388.1-290.9,400.6-290.9,403.1z"/>
	<polygon class="st1" points="-277.5,386.2 -283.2,386.2 -283.2,403.2 -277.5,403.2 -277.5,401.2 -280.9,401.2 -280.9,395.7 
		-277.6,395.7 -277.6,393.4 -280.9,393.4 -280.9,388.2 -277.5,388.1 	"/>
	<polygon class="st1" points="-284.2,405.5 -280.3,406.8 -276.5,405.5 	"/>
</g>
</svg>
