<svg xmlns="http://www.w3.org/2000/svg" viewBox="0 0 582 578">
  <path d="M209.84 35.8c18.33-19.93 44.25-32.81 71.27-35 6.59-.3 13.21-.25 19.8.02 26.79 2.08 52.46 14.82 70.74 34.45 18.54 19.54 29.38 46.1 29.91 73.02.13 12.77.02 25.54.05 38.31h22.99c-.06-13.41.13-26.82-.1-40.22-.78-22.11-8.68-43.7-21.7-61.51 22.37 16.47 38.04 41.67 42.92 69.02 2.1 10.77 1.84 21.79 1.81 32.71 44.59.01 89.18 0 133.78 0 .03 126.48.04 252.95.01 379.43-.02 7.69.77 15.67-1.96 23.05-5.2 15.78-20.6 28.01-37.38 28.28-167.33-.05-334.66-.02-501.98-.02-20.62-.28-38.96-18.78-39.34-39.35C.68 407.53.65 277.06.67 146.6h179.71c.03-12.75-.07-25.5.05-38.24.49-26.7 11.16-53.06 29.41-72.56m66.98-11.42c-19.85 3.18-38.45 13.51-51.69 28.64-13.76 15.56-21.67 36.15-21.8 56.92-.05 12.22-.01 24.44-.02 36.66h22.99c.02-6.53-.11-13.06.22-19.59.78-13.19 3.97-26.23 9.35-38.3 10.29-24.73 34.24-42.29 60.12-47.72 17.34-3.61 35.97-2.01 52.07 5.56-5.36-.31-10.71-.87-16.08-.47-20.89 1.1-41.26 10.03-56.21 24.69-15.96 15.4-25.65 37.08-26.46 59.25-.16 5.52-.05 11.05-.08 16.58h129.46v-33.68c.02-13.9-3.23-27.8-9.48-40.21-9.11-18.27-24.67-33.22-43.29-41.58-15.26-6.86-32.54-9.59-49.1-6.75M169.12 240.2c.01 37.51-.02 75.01.02 112.52 37.49-.03 74.99-.01 112.49-.02 0-37.49-.02-74.99.01-112.49-37.51-.03-75.01 0-112.52-.01m131.23.02c.06 37.49.02 74.99.02 112.48 37.49.02 74.99-.02 112.48.03.06-37.52.02-75.03.02-112.54-37.51.03-75.01-.03-112.52.03M169.14 371.44c-.03 37.5 0 75.01-.02 112.51 37.51-.01 75.02.04 112.52-.02-.03-37.49 0-74.99-.01-112.48-37.5-.01-75 .01-112.49-.01m131.23.01c0 37.5.02 74.99-.01 112.49 37.51.04 75.01.01 112.52.01-.01-37.5.03-75.01-.02-112.51-37.49.03-74.99 0-112.49.01z"/>
  <path fill="#f25022" d="M169.12 240.2c37.51.01 75.01-.02 112.52.01-.03 37.5-.01 75-.01 112.49-37.5.01-75-.01-112.49.02-.04-37.51-.01-75.01-.02-112.52z"/>
  <path fill="#7fba00" d="M300.35 240.22c37.51-.06 75.01 0 112.52-.03 0 37.51.04 75.02-.02 112.54-37.49-.05-74.99-.01-112.48-.03 0-37.49.04-74.99-.02-112.48z"/>
  <path fill="#01a4ef" d="M169.14 371.44c37.49.02 74.99 0 112.49.01.01 37.49-.02 74.99.01 112.48-37.5.06-75.01.01-112.52.02.02-37.5-.01-75.01.02-112.51z"/>
  <path fill="#ffb901" d="M300.37 371.45c37.5-.01 75 .02 112.49-.01.05 37.5.01 75.01.02 112.51-37.51 0-75.01.03-112.52-.01.03-37.5.01-74.99.01-112.49z"/>
</svg>
