<?xml version="1.0" encoding="utf-8"?><svg xmlns="http://www.w3.org/2000/svg" viewBox="0 0 25 25"><rect fill="#CB2A2C" width="25" height="25"/><path fill="#fff" d="M7 22c0.5-2 0.9-4 1.3-5.9 0.4-2.1 0.8-4.3 0.9-6.4 0-0.5 0-1-0.2-1.5C8.8 7.5 8.5 7.3 7.9 7.4 7 7.6 6.3 8.1 5.8 8.9 5.4 9.6 5.1 10 4.9 11c-0.4 0-0.8 0-1.2 0 0-1 0.2-1.6 0.5-2.3 0.6-1.4 1.3-2.6 2.5-3.6 0.6-0.5 1.3-0.8 2-1 1.1-0.2 2 0.2 2.5 1.2 0.6 1.1 0.7 2.2 0.7 3.4C12 9.5 12 10 12 11c0.7 0 1.4 0 2.2 0 0.5-2 1.1-4.6 1.9-7 0.9 0 1.8 0 2.7 0 -0.7 2.6-1.3 5.3-1.8 8 -0.3 1.7-0.6 3.4-0.4 5.2 0.1 1.4 0.8 1.7 2 1.1 0.9-0.5 1.4-1.3 1.8-2.2C20.5 15.7 20.6 15 20.8 15c0.4 0 0.9 0 1.2 0 0 0-0.1 0.7-0.2 1.1 -0.6 2.1-1.6 3.9-3.4 5.2 -0.4 0.3-0.9 0.5-1.5 0.6 -1.2 0.2-2-0.2-2.6-1.3 -0.5-0.9-0.6-1.8-0.7-2.8C13.6 16.5 13.7 15 13.8 14c-0.7 0-1.4 0-2.2 0 -0.5 3-1.1 5-2 8C8.7 22 7.9 22 7 22z"/></svg>