<?xml version="1.0" encoding="utf-8"?>
<!-- Generator: Adobe Illustrator 19.0.0, SVG Export Plug-In . SVG Version: 6.00 Build 0)  -->
<svg version="1.1"
	 id="svg2" xmlns:dc="http://purl.org/dc/elements/1.1/" xmlns:cc="http://creativecommons.org/ns#" xmlns:rdf="http://www.w3.org/1999/02/22-rdf-syntax-ns#" xmlns:svg="http://www.w3.org/2000/svg" xmlns:sodipodi="http://sodipodi.sourceforge.net/DTD/sodipodi-0.dtd" xmlns:inkscape="http://www.inkscape.org/namespaces/inkscape" sodipodi:docname="Zeichnung.svg" inkscape:version="0.91 r13725"
	 xmlns="http://www.w3.org/2000/svg" xmlns:xlink="http://www.w3.org/1999/xlink" x="0px" y="0px" viewBox="-128.7 247 300 300"
	 style="enable-background:new -128.7 247 300 300;" xml:space="preserve">
<style type="text/css">
	.st0{fill:#0070FF;}
	.st1{fill:#FFFFFF;}
</style>
<sodipodi:namedview  units="px" showgrid="false" inkscape:cy="233.84926" inkscape:cx="-110.89945" inkscape:zoom="1.4" borderopacity="1.0" bordercolor="#666666" pagecolor="#ffffff" id="base" inkscape:window-maximized="1" inkscape:window-y="-8" inkscape:current-layer="svg2" inkscape:document-units="px" inkscape:pageopacity="0.0" inkscape:window-height="1017" inkscape:window-x="-8" inkscape:window-width="1920" inkscape:pageshadow="2">
	</sodipodi:namedview>
<circle class="st0" cx="21.3" cy="397" r="135"/>
<g id="layer1" transform="matrix(0.50225316,0,0,0.50225316,270.90047,-90.115393)" inkscape:label="Ebene 1" inkscape:groupmode="layer">
	<path id="path14" inkscape:connector-curvature="0" class="st1" d="M-335.9,1047.2c-30.3,68.8-92.7,104.8-159.2,103.9
		c-127.7-6.3-164.9-153.9-79.5-207.1l3.8,3.8c-1.5,1.9-6.4,5.9-14.4,21.5c-9.3,19-12.1,37.9-11,49.7
		c6.6,103.1,150.9,124.1,200.6,22.2c63.3-139.8-104.4-281.9-253.3-173.3l-3.4-3.4c39.2-61.4,115.7-88.9,188.7-70.6
		C-352,821.8-292,938.4-335.9,1047.2z M-455.3,1045c-10.3,14.9-27.6,24.6-47.1,24.6c-31.6,0-57.3-25.6-57.3-57.3
		c0-30.2,23.4-55,53.1-57.1v0c18.5-0.7,35.7,9.2,43.9,25.5c8.8,17.5,5.6,39-8.2,53.6C-465.7,1037.8-460.5,1041.4-455.3,1045
		L-455.3,1045z M-655.2,1007.1c-2.8,22.7-1,29.9-1,32.6l-5.1,1.8c-1.9-3.7-6.8-16.9-8.9-34.6c-5.5-67.6,40.6-128.6,110.8-139.9
		c64.3-9.5,125.9,30.5,140.3,86.4l-5.1,1.8c-1.5-1.7-4.2-6.2-13.9-16C-515.7,861.2-637.7,897-655.2,1007.1z M-287.2,969.6
		c-4.6-223.5-301.5-306.8-415.8-97.4c5.1,3.7,12,8.6,17.1,12.3c-8.8,18.4-14.6,37.1-17.8,55.8c-2.2,12.2-3.4,24.8-3.4,37.7
		c0,116,94,210,210,210c116,0,210-94,210-210C-287,975.2-287.1,972.4-287.2,969.6"/>
</g>
</svg>
