<?xml version="1.0" encoding="UTF-8"?>
<svg xmlns="http://www.w3.org/2000/svg" viewBox="0 0 64 64">
  <rect style="fill:#131418" width="64" height="64"/>
  <g fill="#009ae4">
  <path d="m 39.972588,21.336114 c -0.81879,-0.34793 -0.683788,-0.271099 -0.683788,-0.271099 0,0 -0.08781,-0.09659 1.173306,0.895619 1.920753,1.511358 3.190646,3.954557 3.876629,6.330803 0.842936,2.928326 0.223905,6.990446 -2.445393,11.033905 -5.690918,8.622537 -14.880901,13.659301 -16.711652,10.670608 -0.928548,-1.515748 2.113926,-4.524197 2.113926,-4.524197 l -1.838435,0.998792 c 0,0 -3.216988,3.838214 -2.628689,6.177143 1.00428,3.990776 12.064526,1.285258 20.069129,-11.794523 7.188008,-11.740743 -0.766107,-18.596186 -2.925033,-19.517051 z"/>
  <path d="m 39.929783,21.22965 c -0.81879,-0.349028 -0.986719,-0.321589 -0.986719,-0.321589 0,0 0.07244,-0.02744 1.333552,0.964767 1.920754,1.511359 3.334427,3.935899 4.019314,6.313242 0.844034,2.927228 0.225002,6.990445 -2.445394,11.035002 -5.690918,8.622538 -14.879802,13.658204 -16.711652,10.670609 -0.928547,-1.516846 2.112828,-4.524197 2.112828,-4.524197 l -1.838435,0.997694 c 0,0 -3.216987,3.838214 -2.62759,6.177143 C 23.788869,56.532 34.849116,53.826482 42.854815,40.747797 50.041726,29.00486 42.08871,22.150514 39.929783,21.22965 Z"/>
  <path d="m 37.362559,42.57855 c 0,0 0.126221,-0.02744 -1.363187,0.567445 -2.268684,0.907694 -5.019203,0.78696 -7.42179,0.190978 -2.956863,-0.732081 -6.165071,-3.300403 -8.332777,-7.633622 -4.621882,-9.239374 -4.389196,-19.716809 -0.886839,-19.809005 1.779165,-0.0461 2.86247,4.092852 2.86247,4.092852 l 0.05487,-2.090878 c 0,0 -1.715507,-4.706395 -4.03468,-5.366036 -3.957849,-1.126111 -7.145202,9.805721 0.180002,23.277336 6.575562,12.095258 16.488845,8.635707 18.365695,7.225325 0.711228,-0.533421 0.576227,-0.454395 0.576227,-0.454395 z"/>
  <path d="m 36.174984,43.029652 c -2.269781,0.906597 -5.076277,0.919767 -7.47667,0.323784 -2.956863,-0.732081 -6.165069,-3.300403 -8.333874,-7.633622 -4.621881,-9.240471 -4.389196,-19.717906 -0.885742,-19.809004 1.778069,-0.0461 2.862471,4.092851 2.862471,4.092851 l 0.05488,-2.090877 c 0,0 -1.716604,-4.705298 -4.035778,-5.364939 -3.957849,-1.12611 -7.145202,9.805721 0.178906,23.277336 6.576659,12.095258 16.489942,8.634609 18.365694,7.225326 0.70135,-0.525738 0.769399,-0.688179 0.771594,-0.693667 -0.0033,0.0076 -0.07244,0.102075 -1.501481,0.672812 z"/>
  <path d="M 34.97863,17.045701 C 21.216157,16.69338 19.254793,27.008374 19.537967,29.338522 c 0.107562,0.883547 0.106464,0.727691 0.106464,0.727691 0,0 -0.03951,0.124026 0.190978,-1.463065 0.347931,-2.417954 1.829655,-4.740419 3.545163,-6.522878 2.112828,-2.19405 5.941164,-3.688945 10.77817,-3.399186 10.312799,0.616837 19.268998,6.058606 17.597394,9.137299 -0.849522,1.561847 -4.976398,0.431346 -4.976398,0.431346 l 1.783557,1.093183 c 0,0 4.932495,0.867083 6.664466,-0.812203 C 58.18133,25.664945 50.308437,17.439729 34.97863,17.045701 Z"/>
  <path d="M 34.909482,17.142287 C 21.145912,16.789966 19.186744,27.10496 19.46882,29.435109 c 0.105367,0.870375 0.211832,1.010865 0.215125,1.015255 -0.0033,-0.0055 -0.05159,-0.111953 0.169025,-1.63758 0.349029,-2.419051 1.740752,-4.855664 3.457357,-6.637025 2.112829,-2.19405 5.941165,-3.688945 10.77817,-3.400283 10.3128,0.617934 19.268998,6.058605 17.596296,9.137298 -0.848423,1.562945 -4.974202,0.432444 -4.974202,0.432444 l 1.783557,1.093183 c 0,0 4.933592,0.867083 6.664465,-0.812204 2.952473,-2.864666 -4.919323,-11.092076 -20.249131,-11.48391 z"/>
  <path d="M 37.982688,17.288264 C 37.033286,15.484952 34.148864,10.240746 31.301758,7.4529092 27.116711,3.3545702 24.821685,5.10959 23.911797,6.0908207 18.688445,11.721372 21.90653,27.264109 25.215714,36.618727 c 0.490615,1.389527 1.026232,2.751616 1.590384,4.080777 0.244759,-0.09879 0.60586,-0.251344 0.991108,-0.436834 0.424762,-0.206344 0.748546,-0.378662 0.942816,-0.485127 -0.124026,-0.352322 -0.249149,-0.706838 -0.370979,-1.066841 -3.043571,-8.932053 -5.538356,-23.715269 -0.44342,-27.28787 1.414772,-0.993304 3.047961,0.160246 4.31456,1.368674 1.162331,1.111842 2.642958,3.269671 3.341014,4.327732 z m -4.32883,33.76904 -1.061354,0.734277 c 2.228075,3.556137 4.424319,6.402145 6.148607,8.187897 1.003182,1.039402 1.704532,1.052573 1.704532,1.052573 -0.904402,-0.738666 -3.694433,-4.116997 -6.791785,-9.974747 z M 29.6093,44.592597 c -0.228295,0.1811 -0.570738,0.440127 -0.741959,0.569641 0.745252,1.487211 1.516846,2.911862 2.296124,4.258585 l 0.128416,-0.07574 1.10306,-0.777082 C 31.715544,47.160912 31.030658,45.64187 30.357845,44.007583 30.182234,44.143682 29.859547,44.395027 29.6093,44.59259 Z"/>
  <path d="m 36.812675,17.129116 c 0.811106,0.05269 1.253429,0.110855 1.256721,0.110855 -0.981231,-1.859289 -3.833823,-7.018982 -6.6491,-9.7760861 -4.186145,-4.098339 -6.48117,-2.3422215 -7.391059,-1.360991 -5.224449,5.6294531 -2.005267,21.1743861 1.30282,30.5268081 0.491713,1.389528 1.027329,2.75491 1.591481,4.087363 0.244759,-0.09879 0.605861,-0.251344 0.99111,-0.439029 0.42476,-0.206344 0.748544,-0.378662 0.943912,-0.485127 -0.125124,-0.354516 -0.250246,-0.711228 -0.373175,-1.07233 -3.044668,-8.932052 -5.538355,-23.71417 -0.44342,-27.287868 1.41587,-0.992207 3.049059,0.160245 4.313464,1.369771 1.141477,1.089891 2.585882,3.186255 3.301501,4.266267 0.03951,0.0022 0.508177,0.01975 1.155745,0.06036 z m -3.043571,33.91831 c -0.07134,0.05269 -0.302931,0.22171 -0.608056,0.431347 -0.109757,0.07574 -0.367687,0.244758 -0.477445,0.3161 2.241245,3.593456 4.450661,6.471294 6.181533,8.266923 1.003183,1.038305 1.779167,1.073427 1.779167,1.073427 -0.906595,-0.740862 -3.742725,-4.171876 -6.875199,-10.087797 z m -4.064315,-6.449341 c -0.297442,0.235978 -0.698057,0.545494 -0.72769,0.568543 0.733178,1.468553 1.492698,2.87674 2.259903,4.210291 0.06915,-0.03622 0.253539,-0.135002 0.648665,-0.367687 0.375371,-0.220612 0.575129,-0.351223 0.648667,-0.398419 -0.691472,-1.425747 -1.386235,-2.965643 -2.068927,-4.620784 -0.03292,0.02525 -0.429151,0.342443 -0.760618,0.608056 z"/>
  <path d="M 57.920108,36.746045 C 55.655814,29.407669 40.585034,24.423588 30.829802,22.612593 c -1.448797,-0.268906 -2.895398,-0.488421 -4.328829,-0.664032 -0.03732,0.261222 -0.08561,0.650861 -0.117441,1.076719 -0.03402,0.470859 -0.045,0.837449 -0.05049,1.059158 0.366589,0.06695 0.736472,0.138295 1.109646,0.211832 9.258032,1.828557 23.305873,7.060689 23.853562,13.259784 0.151466,1.72319 -1.662823,2.560639 -3.343208,3.052352 -1.543188,0.451103 -4.15212,0.653056 -5.418719,0.729886 l -1.344528,1.996486 c 2.040389,0.08012 8.021067,0.204149 11.855988,-0.868181 5.640429,-1.575018 5.268352,-4.439684 4.874322,-5.720552 z M 3.8338872,22.646617 C 2.4333836,22.99345 2.0700868,23.594921 2.0700868,23.594921 3.1687578,23.180038 7.5184411,22.447957 14.187297,22.703691 L 14.102785,21.41075 C 9.8650526,21.560019 6.2628171,22.041854 3.8338872,22.646617 Z M 21.59921,21.505141 c -1.620019,-0.09549 -3.200524,-0.14049 -4.719566,-0.141587 l -0.0033,0.124026 0.06146,1.371966 c 1.546481,0.114148 3.192842,0.28098 4.9303,0.514762 -0.01756,-0.125123 -0.08232,-0.571835 -0.138294,-0.959278 -0.0472,-0.315004 -0.10866,-0.747448 -0.130611,-0.909889 z"/>
  <path d="m 46.932301,22.250393 c -0.909889,1.340138 -1.922949,2.746129 -3.049059,4.202609 0.02085,0.0088 0.491713,0.193173 0.907693,0.357809 0.349029,0.138294 0.802327,0.321589 0.858302,0.344638 0.942816,-1.425748 1.815387,-2.842716 2.611128,-4.225657 l -0.10866,-0.06586 z m -5.808358,7.597404 c -0.242564,0.28427 -0.487322,0.56964 -0.738667,0.855009 -6.212265,7.102397 -17.767518,16.653481 -23.410143,14.028085 -1.567334,-0.728788 -1.386235,-2.718689 -0.971352,-4.421025 0.391833,-1.604653 1.570628,-4.048949 2.121609,-5.146522 l -1.042695,-2.165513 c -1.032816,1.630995 -4.225657,6.865322 -5.233229,10.793538 -1.45648,5.672258 1.211721,6.783003 2.516735,7.080445 7.486549,1.708922 19.338146,-8.850831 25.785291,-16.393355 0.957085,-1.120623 1.870266,-2.264294 2.739544,-3.417844 -0.207441,-0.161343 -0.521348,-0.39842 -0.874767,-0.638788 -0.390735,-0.265612 -0.702446,-0.458785 -0.892326,-0.57403 z M 53.680181,9.0806105 C 53.492497,10.233062 51.960285,14.334694 48.440367,19.943294 l 1.16672,0.553177 c 1.962461,-3.705407 3.327843,-7.02886 4.013826,-9.413887 0.39842,-1.3873321 0.05927,-2.0019735 0.05927,-2.0019735 z"/>
  <path d="m 46.873032,22.150514 c -0.889034,1.310503 -1.875753,2.683567 -2.968936,4.101632 0.07574,0.02854 0.529031,0.201954 0.905498,0.349028 0.324882,0.127319 0.760618,0.315003 0.857205,0.356712 0.907693,-1.374162 1.750629,-2.738446 2.524418,-4.073095 -0.100974,-0.05927 -0.38415,-0.2261 -0.638787,-0.374273 -0.279881,-0.162441 -0.581714,-0.312808 -0.679398,-0.360004 z M 53.670304,8.8578031 c -0.188783,1.1557439 -1.741849,5.3254259 -5.297987,10.9954899 0.08671,0.03951 0.340248,0.153661 0.664032,0.308418 0.120733,0.05707 0.40281,0.204149 0.521347,0.264516 1.992096,-3.739433 3.381624,-7.093617 4.069802,-9.491815 0.399517,-1.3873329 0.0428,-2.0766089 0.0428,-2.0766089 z M 41.076747,29.738039 c -0.243661,0.284271 -0.489518,0.56964 -0.739764,0.856107 -6.212265,7.102398 -17.767518,16.652383 -23.410143,14.028085 -1.568432,-0.729886 -1.386235,-2.720884 -0.971352,-4.421025 0.385248,-1.579408 1.533309,-3.973216 2.095267,-5.094935 -0.02525,-0.04939 -0.238174,-0.462079 -0.518055,-1.03172 -0.293051,-0.598177 -0.487322,-1.024035 -0.534517,-1.1305 -1.069038,1.692458 -4.202609,6.853248 -5.199205,10.73756 -1.455383,5.674455 1.21172,6.784102 2.516735,7.081543 7.488743,1.710019 19.340341,-8.850831 25.786389,-16.393355 0.957084,-1.119525 1.870265,-2.264294 2.742836,-3.417844 -0.208539,-0.162441 -0.520251,-0.398419 -0.871473,-0.63769 -0.39403,-0.26671 -0.706838,-0.462078 -0.896718,-0.576226 z"/>
  <path d="M 57.849864,36.843729 C 55.586667,29.504256 40.515887,24.519077 30.759557,22.709179 c -1.446602,-0.268905 -2.893203,-0.487323 -4.328829,-0.664031 -0.03731,0.260124 -0.08561,0.65086 -0.116343,1.076718 -0.03402,0.47086 -0.0461,0.838547 -0.05049,1.060256 0.36659,0.06805 0.736472,0.137197 1.109647,0.211833 9.256933,1.829654 23.305872,7.060689 23.853562,13.259783 0.152562,1.722093 -1.662824,2.559541 -3.343209,3.051254 -1.510261,0.441224 -4.042362,0.645373 -5.336402,0.725496 l 0.0022,0.0033 c 0,0 -0.284271,0.424761 -0.661837,0.985621 -0.42915,0.639885 -0.695861,1.00867 -0.695861,1.00867 l -0.0088,0.0066 c 2.09856,0.07902 7.995822,0.188783 11.793426,-0.871473 5.640429,-1.575018 5.268352,-4.440782 4.873226,-5.719455 z M 21.554209,21.59624 c -1.604652,-0.09659 -3.170889,-0.14488 -4.677858,-0.149271 -0.0044,0.107563 -0.01207,0.378664 -0.0055,0.748546 0.0076,0.435736 0.01975,0.677203 0.02415,0.768301 1.548677,0.114148 3.195036,0.279881 4.929202,0.511469 -0.0044,-0.02744 -0.09,-0.563055 -0.154758,-1.004279 C 21.584935,21.893682 21.55859,21.637947 21.5542,21.59624 Z M 14.053393,21.488678 C 9.7772472,21.629167 6.1409865,22.105513 3.7010809,22.712472 2.3005773,23.0615 1.8813042,23.715653 1.8813042,23.715653 2.9821704,23.299674 7.4086838,22.554421 14.152175,22.809058 c -0.0088,-0.0922 -0.03512,-0.362199 -0.06366,-0.723301 -0.0099,-0.133903 -0.02744,-0.460981 -0.03512,-0.597079 z"/>
  </g>
</svg>

