<?xml version="1.0" encoding="utf-8"?>
<!-- Generator: Adobe Illustrator 19.0.0, SVG Export Plug-In . SVG Version: 6.00 Build 0)  -->
<svg version="1.1" xmlns="http://www.w3.org/2000/svg" xmlns:xlink="http://www.w3.org/1999/xlink" x="0px" y="0px"
	 viewBox="0 0 512 512" style="enable-background:new 0 0 512 512;" xml:space="preserve">
<style type="text/css">
	.st0{fill:#1C1E20;}
	.st1{fill:#FFFFFF;}
</style>
<g id="BG">
	<rect class="st0" width="512" height="512"/>
</g>
<g id="Oculus_Logo">
	<path class="st1" d="M389.1,175.9c-12.1-9.7-25.9-16.4-40.9-20c-8.6-2.1-17.2-3-26.1-3.3c-6.5-0.2-13.1-0.2-19.6-0.2
		c-31,0-62,0-92.9,0c-6.5,0-13.1-0.1-19.6,0.2c-8.8,0.3-17.5,1.2-26.1,3.3c-15,3.6-28.9,10.3-40.9,20
		c-24.3,19.5-38.4,48.9-38.4,80.1c0,31.2,14.2,60.6,38.5,80.1c12.1,9.7,25.9,16.4,40.9,20c8.6,2.1,17.2,3,26.1,3.3
		c6.5,0.2,13.1,0.2,19.6,0.2c31,0,62,0,92.9,0c6.5,0,13.1,0.1,19.6-0.2c8.8-0.3,17.5-1.2,26.1-3.3c15-3.6,28.9-10.3,40.9-20
		c24.3-19.5,38.4-48.9,38.4-80.1C427.5,224.8,413.4,195.4,389.1,175.9z M343.7,283.9c-4.6,3.2-9.7,5.1-15.1,5.9
		c-5.5,0.9-10.9,0.7-16.3,0.7c-37.5,0-75,0-112.5,0c-5.5,0-10.9,0.2-16.3-0.7c-5.5-0.9-10.5-2.8-15.1-5.9
		c-9.2-6.3-14.7-16.7-14.7-27.9c0-11.2,5.5-21.5,14.7-27.9c4.6-3.2,9.7-5.1,15.1-5.9c5.5-0.9,10.9-0.7,16.3-0.7c37.5,0,75,0,112.5,0
		c5.5,0,10.9-0.2,16.3,0.7c5.5,0.9,10.5,2.8,15.1,5.9c9.2,6.3,14.7,16.7,14.7,27.9C358.4,267.2,352.9,277.5,343.7,283.9z"/>
</g>
</svg>
