<?xml version="1.0" encoding="UTF-8"?><svg xmlns="http://www.w3.org/2000/svg" viewBox="0 0 288 288"><rect width="288" height="288" fill="#008a00"/><path fill="#fff" d="m115,49.7 c 8.3,-4.1 18.4,-3.4 26.7,.6 11,5.2 18.6,16.7 19.1,28.9 l 10.9,-2.2c-2.2,-7.4-7.5,-13.8-14.2,-17.5-3.1,-2.6-5.3,-6.2-9,-8 12.9,2.1 24.3,11.8 27.8,24.6 l 17.4,-3.5 14.1,9.3 16.3,2.4 0,131-30.4,11.5-128.6,-25.7 0,-102.7 28,-5.6c.1,-5-.3,-10 .8,-14.9 2.6,-11.8 10.1,-22.8 21.1,-28.2zm5.2,2.9c-10.4,3.4-17.8,12.9-21,23-1.8,5.2-1.6,10.8-1.5,16.2 l 12,-2.5c.4,-14.3 8.7,-28.2 21.4,-35 2.5,.4 5,1.2 7.3,2.2-13.9,3.8-23.1,17.9-24.1,31.9 l 41.8,-8.4c-.2,-5.7-2,-11.4-5.4,-16.1-6.5,-9.4-19.2,-14.6-30.5,-11.3zm2.4,70 0,27.1 37.1,0 0,-32.3zm-29.5,4.3 0,22.8 28,0 0,-26.8zm0,24.4 0,22.8 28,3.9 0,-26.7zm29.5,0 0,27.1 37.1,5.1 0,-32.3z"/></svg>