<?xml version="1.0" encoding="utf-8"?><svg xmlns="http://www.w3.org/2000/svg" viewBox="0 0 25 25"><rect width="25" height="25" x="0" y="0" fill="#3894d1"/><circle cx="12.5" cy="12.5" r="9.3" fill="none" stroke="#fff"/><path d="m15.1 13-4.8 0 1.1-2 2.4 0zM10.9 8c0.3-0.6 1.8-0.4 1.3 0.8L8.4 15.1 7.1 14.3zM16.2 14.2C15 12.7 12 6.4 12.3 5.7c0.6-0.2 3.5 5.2 5 7.9zm0.2-3.2 2.6 0 0 2-1.8 0zM6 13 6 11 8.5 11 7.4 13zm10.5 1.5 0.7-0.4 1.2 1.9c0.3 0.9-0.5 1.2-1 0.5zM8.2 15.5 6.5 17 6.8 15.5 7 14.8z" fill="#fff"/></svg>