<?xml version="1.0" encoding="utf-8"?><svg xmlns="http://www.w3.org/2000/svg" viewBox="0 0 250 250"><rect width="250" height="250"/><g fill="#fff"><path d="m154,160 43,-33-12,-34-33,5-27,-23-27,23-33,-4-12,33 43,33-17,0-41,-30 15,-50 40,5 32,-28 32,28 40,-5 15,48-40,32z"/><path d="M125,166.5C118,161 115,154 112,147c-3,-8-4,-15-5,-23 0,-6 0,-12 0,-18 0,-1 1,-2 2,-3l16,-16 0,0c1,1 2,2 3,3l14,14c1,1 2,3 2,4 0,6 0,11-1,17-1,8-2,15-5,23-3,7-8,15-13,18.5z"/><path d="m64,126 6,-21 24,3c0.3,20.9 5.3,40.3 17,57z"/><path d="m186,126-6,-21-24,3c-0.3,20.9-5.3,40.3-17,57z"/><path d="m82,170 86,0-43,22z"/></g></svg>