<?xml version="1.0" encoding="utf-8"?>
<!-- Generator: Adobe Illustrator 19.0.0, SVG Export Plug-In . SVG Version: 6.00 Build 0)  -->
<svg version="1.1"
	 id="svg2" xmlns:dc="http://purl.org/dc/elements/1.1/" xmlns:svg="http://www.w3.org/2000/svg" xmlns:sodipodi="http://sodipodi.sourceforge.net/DTD/sodipodi-0.dtd" xmlns:inkscape="http://www.inkscape.org/namespaces/inkscape" xmlns:rdf="http://www.w3.org/1999/02/22-rdf-syntax-ns#" xmlns:cc="http://creativecommons.org/ns#" inkscape:version="0.91 r13725" sodipodi:docname="Zeichnung.svg"
	 xmlns="http://www.w3.org/2000/svg" xmlns:xlink="http://www.w3.org/1999/xlink" x="0px" y="0px" viewBox="-128.7 247 300 300"
	 style="enable-background:new -128.7 247 300 300;" xml:space="preserve">
<style type="text/css">
	.st0{fill:#0070FF;}
	.st1{fill:#FFFFFF;}
</style>
<sodipodi:namedview  pagecolor="#ffffff" showgrid="false" inkscape:cx="-110.89945" inkscape:cy="233.84926" bordercolor="#666666" inkscape:zoom="1.4" borderopacity="1.0" id="base" units="px" inkscape:pageshadow="2" inkscape:window-width="1920" inkscape:window-x="-8" inkscape:window-height="1017" inkscape:pageopacity="0.0" inkscape:document-units="px" inkscape:current-layer="svg2" inkscape:window-y="-8" inkscape:window-maximized="1">
	</sodipodi:namedview>
<circle class="st0" cx="21.3" cy="397" r="149"/>
<g id="layer1" transform="matrix(0.50225316,0,0,0.50225316,270.90047,-90.115393)" inkscape:label="Ebene 1" inkscape:groupmode="layer">
	<path id="path14" inkscape:connector-curvature="0" class="st1" d="M-319.2,1055.2c-33.4,75.9-102.3,115.6-175.8,114.7
		c-141-7-182-169.8-87.8-228.6l4.1,4.1c-1.6,2.1-7.1,6.5-15.9,23.8c-10.3,20.9-13.4,41.8-12.2,54.9c7.3,113.8,166.6,137,221.4,24.5
		c69.8-154.3-115.2-311.1-279.5-191.3l-3.8-3.8c43.2-67.8,127.7-98.2,208.3-77.9C-336.9,806.5-270.7,935.1-319.2,1055.2z
		 M-451,1052.7c-11.4,16.4-30.4,27.2-52,27.2c-34.9,0-63.2-28.3-63.2-63.2c0-33.4,25.9-60.7,58.6-63.1v0
		c20.4-0.8,39.4,10.2,48.5,28.1c9.8,19.3,6.2,43.1-9,59.1C-462.4,1044.8-456.7,1048.8-451,1052.7L-451,1052.7z M-671.6,1011
		c-3,25.1-1.1,32.9-1.2,35.9l-5.6,2c-2.1-4.1-7.5-18.7-9.8-38.2c-6-74.6,44.8-141.9,122.3-154.4c71-10.4,138.9,33.7,154.8,95.4
		l-5.6,2c-1.7-1.8-4.6-6.8-15.4-17.7C-517.7,850-652.3,889.4-671.6,1011z M-265.4,969.6c-5.1-246.7-332.7-338.6-458.9-107.5
		c5.6,4,13.3,9.5,18.9,13.5c-9.7,20.3-16.1,41-19.6,61.6c-2.5,13.5-3.7,27.4-3.7,41.6c0,128,103.8,231.8,231.8,231.8
		c128,0,231.8-103.8,231.8-231.8C-265.2,975.8-265.3,972.7-265.4,969.6"/>
</g>
</svg>
