<?xml version="1.0" encoding="utf-8"?><svg xmlns="http://www.w3.org/2000/svg" viewBox="0 0 2500 2500"><circle cx="1250" cy="1250" r="1210" fill="#b12179"/><g fill="#fff"><path d="m551 940 305 462 0-466c0-48 26-91 72-91 52 0 74 50 74 91l0 617c0 73-29 103-86 103-62 0-94-49-124-94l-298-457 0 459c0 47-28 91-74 91-52 0-74-47-74-91l0-605c0-75 31-115 93-115 60 0 85 55 112 95zM1210 1618c-7 25-26 37-51 37-36 0-62-18-55-47l182-745c4-14 19-18 42-18 32 0 62 21 55 48zM1948 1455l-319 0-75 180c-10 17-27 21-51 21-57 0-82-67-71-105l218-557c29-79 58-149 137-149 88 0 109 72 138 148l223 556c18 53-31 106-72 106-22 0-50-10-55-25zm-277-119 234 0-118-323z"/></g></svg>