<?xml version="1.0" encoding="utf-8"?><svg xmlns="http://www.w3.org/2000/svg" viewBox="0 0 250 250"><path d="m206 128.4c-9.5 9.5-22.8 10-31.4 1-8-10.5-7.7-24.7 0.7-33.8C186.7 86 204 87.2 212.5 98c7.5 13 8.7 28.4 5 42-2.3 8-7 15.6-14 19-12 6.2-31.7 0.4-32-13 1-7.4 10-5.2 12 0 1.7 4 4.6 6.4 9 6.4 10.5-2.6 13.8-12.6 13.6-23.6zm-1-14.8c0-7.3-3.4-15.2-12-15.2-7.5 0-11 6.4-11 14.3 0 9.5 4.4 14 11.2 14 8.2-2 11.8-7.5 11.8-13zm-98 40 0-44c-8.2 6.3-13.3 9.4-16.5 9.4-4.3 0-7-6.2-3.6-9 4.8-3 10.3-5 14.7-8.8 5.5-3.2 7-12.3 12.8-12.3 4.2 0 5.6 4 5.6 7.4l0 55.2c0 6.7-2.3 9.7-6.6 9.7-4.2-0.7-6.4-5-6.4-7.7zm-34.5-4.7c3.2 0 7.7 1.5 7.7 5.7 0 4-2.8 5.6-6.3 5.6l-35.5 0c-10.2-1.5-8.6-10.6-3.6-15.8 7.4-9.2 18-15.5 25.6-23.3 8.3-8.8 5.8-21.8-5.6-22.3-13.7 0.3-9.5 16-18.2 16.2C33 115 31 112 31 109 32 94.4 44.2 88.6 55.2 88.6 68.3 88.6 79 95.8 79.2 109.2 77.6 127.7 57 135 47.6 148.7zm76 -41a7 7 0 1 0 .1 0zm0 39a7 7 0 1 0 .1 0z" fill="#fff"/></svg>