<?xml version="1.0" encoding="utf-8"?><svg xmlns="http://www.w3.org/2000/svg" viewBox="0 0 2500 2500"><path d="m2060 1284c-95 95-228 100-314 10-80-105-77-247 7-338C1867 860 2040 872 2125 980c75 130 87 284 50 420-23 80-70 156-140 190-120 62-317 4-320-130 10-74 100-52 120 0 17 40 46 64 90 64 105-26 138-126 136-236zm-10-148c0-73-34-152-120-152-75 0-110 64-110 143 0 95 44 140 112 140 82-20 118-75 118-130zm-980 400 0-440c-82 63-133 94-165 94-43 0-70-62-36-90 48-30 103-50 147-88 55-32 70-123 128-123 42 0 56 40 56 74l0 552c0 67-23 97-66 97-42-7-64-50-64-77zm-345-47c32 0 77 15 77 57 0 40-28 56-63 56l-355 0c-102-15-86-106-36-158 74-92 180-155 256-233 83-88 58-218-56-223-137 3-95 160-182 162C330 1150 310 1120 310 1090 320 944 442 886 552 886 683 886 790 958 792 1092 776 1277 570 1350 476 1487zm760 -410a70 70 0 10 0 1 0zm0 390a70 70 0 10 0 1 0z" fill="#fff"/></svg>