<?xml version="1.0" encoding="utf-8"?><svg xmlns="http://www.w3.org/2000/svg" xmlns:xlink="http://www.w3.org/1999/xlink" viewBox="0 0 2500 2500"><path id="m" fill="#fff" d="M632,1544 494,995l0,595c0,54-30,98-81,99-58,-2-80,-54-80,-99l0,-682c-1,-72 52,-95 109,-96l54,0c89,0 103,22 128,115l125,472 125,-472c23,-96 52,-115 128,-115l54,0c68,-2 108,38 109,96l0,682c0,54-31,98-81,99-57,-2-79,-55-79,-99l0,-595-138,549c-9,36-16,62-22,78-17,43-40,66-95,66-47,0-77,-13-96,-70z"/><use xlink:href="#m" transform="translate(1000,0)"/></svg>