<?xml version="1.0" encoding="utf-8"?><svg xmlns="http://www.w3.org/2000/svg" xmlns:xlink="http://www.w3.org/1999/xlink" viewBox="0 0 250 250"><path id="m" fill="#fff" d="M63.2,154.4 49.4,99.5l0,59.5c0,5.4-3,9.8-8.1,9.9-5.8,-0.2-8,-5.4-8,-9.9l0,-68.2c-0.1,-7.2 5.2,-9.5 10.9,-9.6l5.4,0c8.9,0 10.3,2.2 12.8,11.5l12.5,47.2 12.5,-47.2c2.3,-9.6 5.2,-11.5 12.8,-11.5l5.4,0c6.8,-0.2 10.8,3.8 10.9,9.6l0,68.2c0,5.4-3.1,9.8-8.1,9.9-5.7,-0.2-7.9,-5.5-7.9,-9.9l0,-59.5-13.8,54.9c-0.9,3.6-1.6,6.2-2.2,7.8-1.7,4.3-4,6.6-9.5,6.6-4.7,0-7.7,-1.3-9.6,-7z"/><use xlink:href="#m" transform="translate(100,0)"/></svg>