<?xml version="1.0" encoding="utf-8"?><svg xmlns="http://www.w3.org/2000/svg" viewBox="0 0 2500 2500"><g fill="#fff"><path d="m2018,1659c-126,47-280,51-393,-13-71,-47-131,-122-132,-204 4,-45 37,-76 78,-77 43,3 66,37 79,70 58,152 204,165 305,96 50,-42 66,-114 22,-159-50,-45-121,-58-178,-71-94,-24-198,-55-254,-130-49,-79-46,-180 2,-250 70,-89 186,-114 284,-114 85,1 170,20 233,72 41,37 73,85 73,138-4,44-36,80-77,81-43,-1-63,-34-79,-64-32,-73-96,-103-162,-103-65,1-149,32-150,101 10,89 122,104 186,120 82,21 165,41 232,87 27,16 49,44 64,74 64,151 2,284-134,347z"/><path d="M1006,1544 867,1029 726,1544c-17,74-43,150-124,150-87,0-105,-85-122,-154L338,962c-28,-104-1,-156 69,-156 73,0 75,54 93,119l112,501 126,-469c20,-91 46,-150 130,-151 91,0 107,77 127,151l127,469 112,-501c18,-67 25,-119 93,-119 95,0 87,88 69,156l-143,578c-16,76-39,154-122,154-85,0-106,-88-124,-150z"/></g></svg>