<?xml version="1.0" encoding="utf-8"?><svg xmlns="http://www.w3.org/2000/svg" viewBox="0 0 250 250"><g fill="#fff"><path d="m88.5,161.3 0,-11.1-30,0 c -6.4,0-11.3,-3.7-11.4,-9.6 0.1,-1.8 0.8,-3.4 1.7,-4.8L89.6,81.9c1.3,-1.3 2.9,-1.9 4.8,-1.9 6.1,0 9.1,3.5 9.1,10.5l0,46.3 2.6,0c5.4,0 10.2,1.7 10.2,6.8 0,5.3-5,6.6-9.1,6.6l-3.6,0 0,11.1c0,5.1-2.8,9-7.5,9.1-5.3,0-7.5,-4.9-7.5,-9.1zm-25.7,-24.5h25.7v-34.8z"/><path d="m145.9,90.4 0,30.7 34.9,-36.4c3.9,-4.7 10.4,-7.3 15.2,-2.9 4,4.4 1.7,10-1.6,13.2l-21.6,20.5 28.8,42.1c3.1,6.5-0.5,12.6-7.2,12.7-4.5,0-7.9,-2.4-10,-5.8l-23.9,-37.1-14.5,13.9 0,18.1c0,6.1-3.4,10.9-9,10.9-5.2,0-8.6,-3.7-8.6,-8.3l-0.2,-71.6c-0.1,-5.9 3.3,-10.8 8.8,-10.8 5.7,0 8.9,3.6 8.9,10.8z"/></g></svg>