<svg xmlns="http://www.w3.org/2000/svg" viewBox="0 0 2500 2500">
  <path fill="#fff" d="M334.29501 1321.2309V928.39233a109.30623 109.30623 0 0 1 22.60793-75.0833 75.912865 75.912865 0 0 1 59.31988-25.0968 77.36475 77.36475 0 0 1 60.97919 25.0968 108.26917 108.26917 0 0 1 22.60793 75.0833v401.54987a366.49735 366.49735 0 0 0 15.3485 114.4915 130.8771 130.8771 0 0 0 53.71976 71.3498 197.87124 197.87124 0 0 0 109.09882 25.3043c64.7126 0 110.34332-17.0078 137.09949-51.4382 26.75618-34.4304 40.03056-86.4909 40.03056-156.1814V928.39233a110.96553 110.96553 0 0 1 22.81534-75.4981 76.949926 76.949926 0 0 1 59.73471-24.682 79.024048 79.024048 0 0 1 60.35696 24.682 107.85434 107.85434 0 0 1 23.23022 75.4981v392.83857a580.75416 580.75416 0 0 1-18.6671 159.7074 248.89464 248.89464 0 0 1-70.52021 112.6248 275.02857 275.02857 0 0 1-103.7061 60.1495 451.12153 451.12153 0 0 1-138.13655 18.8745 571.42061 571.42061 0 0 1-161.98893-20.7412 256.36148 256.36148 0 0 1-110.75811-62.2236 253.25029 253.25029 0 0 1-62.22366-109.3063 557.52399 557.52399 0 0 1-20.94863-159.0851zM1783.8989 1530.095l-132.1216-489.7002-133.5734 489.7002c-10.3706 37.1267-18.6671 63.6755-24.8895 79.8537a103.7061 103.7061 0 0 1-32.5637 43.3491 91.261367 91.261367 0 0 1-60.7718 19.2893 99.557855 99.557855 0 0 1-50.4011-11.4076 88.565009 88.565009 0 0 1-31.9415-32.3563 194.55264 194.55264 0 0 1-20.7412-49.5715c-5.1854-19.082-9.7484-36.712-13.8967-53.0976l-134.6105-549.84957a314.02207 314.02207 0 0 1-12.2373-73.0091 70.72756 70.72756 0 0 1 22.1931-53.305 75.912865 75.912865 0 0 1 55.1716-20.7412 62.223659 62.223659 0 0 1 60.5644 28.0007 323.35562 323.35562 0 0 1 27.171 82.9648l107.0247 477.04797 119.6768-446.14347a713.08314 713.08314 0 0 1 24.0599-77.987 112.62482 112.62482 0 0 1 34.4304-46.2529 99.97268 99.97268 0 0 1 65.1274-19.4968 95.202199 95.202199 0 0 1 64.92 20.7412 111.79517 111.79517 0 0 1 32.1489 44.1788c5.8076 15.9708 13.8966 41.4825 23.8524 79.2315l120.9213 446.14357 106.8173-477.04797a578.26521 578.26521 0 0 1 14.9337-58.4903 94.787375 94.787375 0 0 1 23.8524-37.9564 68.238613 68.238613 0 0 1 49.3641-16.593 76.120277 76.120277 0 0 1 54.7568 20.7412 70.934972 70.934972 0 0 1 22.8154 54.9643 352.60074 352.60074 0 0 1-12.2374 73.0091l-135.8549 549.84957c-9.3336 37.1268-17.0078 64.2978-23.2302 81.513a106.40246 106.40246 0 0 1-31.1118 45.4233 90.639131 90.639131 0 0 1-62.2237 19.4967 91.676192 91.676192 0 0 1-60.5644-18.8745 99.557855 99.557855 0 0 1-31.734-42.7269c-6.015-15.7633-14.3115-42.7269-25.0969-80.8907z"/>
</svg>
