<?xml version="1.0" encoding="utf-8"?><svg xmlns="http://www.w3.org/2000/svg" xmlns:xlink="http://www.w3.org/1999/xlink" viewBox="0 0 2500 2500"><g fill="#fff"><path d="m1204,837 0,132c0,27-6,53-24,70-85,61-188,89-282,89-202,0-350,-118-352,-356 0,-228 139,-356 359,-356 107,0 209,31 260,125 18,34 24,75-3,101-32,25-75,24-99,-8-24,-39-54,-78-92,-96-121,-37-240,16-270,129-25,94-24,223 41,289 91,91 222,76 332,16l0,-112-108,0c-39,1-78,-13-79,-52 3,-36 32,-53 62,-53l158,0c64,0 94,25 95,82z" id="g"/><use xlink:href="#g" transform="translate(750,0)"/><path d="m1574 1241-213 0c-75 0-100 43-100 100l0 593c0 90 40 115 104 115l213 0c289 0 374-159 374-407 0-271-129-400-377-402zm-150 678 0-549c206 0 360-18 361 271 0 316-144 277-361 277zM813 1548 813 1548 813 1548 813 1548c72 0 124-51 124-115 0-63-54-103-108-104-56 0-92 28-114 74-16 40-30 70-74 70-37 0-59-33-59-66 0-101 150-184 262-184 122 0 240 75 240 199 0 74-53 149-93 172 40 11 132 102 132 197 0 141-167 259-291 259-110 0-211-60-256-157-18-37-26-86 3-114 30-26 86-24 100 11 22 63 75 151 154 151 83 0 139-69 139-143 0-85-60-137-133-138-32 1-45 4-64 4-37 0-63-21-63-57 0-43 45-59 79-59z"/></g></svg>